<svg version="1.0" xmlns="http://www.w3.org/2000/svg" width="681.333" height="681.333" viewBox="0 0 511 511"><path d="M143.1 55.5c-40.9 8.9-63.8 59.4-43.8 96.9 4.2 8 8.4 12.4 40.6 42.9 15.2 14.4 31.4 29.8 36.1 34.3 21.7 20.8 28.2 25.7 43 32.1 12.8 5.5 24.9 7.6 40.5 7 14.8-.6 23.4-2.7 36.2-8.7 13.5-6.3 16.7-8.9 47.8-38.4 9.9-9.4 22.9-21.8 29-27.5 34.6-32.9 38.1-36.9 43.3-50.9 3.3-9 4.1-24.4 1.8-35.7-3.2-15.4-13.3-31.5-25.6-40.7-12.9-9.6-26-13.4-43.4-12.5-12.6.6-19.3 1.9-42.6 8.2-27.8 7.4-31.5 8-51.5 8-20.4 0-25.1-.7-56.2-8.6-31.6-7.9-42.2-9.2-55.2-6.4zM67.8 218.9c-8 2.6-14.8 7.3-21.6 14.6-9.3 10.2-18.2 29.5-21.1 45.9-1.5 8.4-1.3 27.9.3 35.8 2.2 10.1 7.6 20.9 13.5 26.8 26.8 26.8 67.9.4 77.8-50 .8-4.1 1.5-13.1 1.5-20 .1-14.3-2.1-24.2-7.4-34.2-8.5-16-27.1-24.2-43-18.9zm353.5-.1c-11.7 4.2-20.9 14.8-25.3 29.3-8.2 27-.8 64.1 16.9 84.9 7.4 8.7 11.1 11.8 18.9 15.7 6.7 3.3 8.1 3.7 15.5 3.7 6.7 0 9.3-.5 13.8-2.6 10.9-5 17.7-13.3 22.5-27.3 3.5-10.5 4.4-28.5 2-42.2-4.8-27.5-19.6-51.2-37.3-59.5-8.6-4.1-18.9-4.9-27-2zM176 304.4c-8.3 2.2-14.4 6-22.1 13.6-16.4 16.2-23.8 38.1-22.6 66.8 1.6 38.5 20.1 66.2 47.6 71.2 19.9 3.6 40.7-9 51.5-31.2 17.8-36.5 11.6-83.8-14.2-108.4-11.6-11.2-26.8-15.7-40.2-12zm139.1.2c-28.5 7.6-48.3 46.1-44 85.3 4 37 22.1 61.9 47.9 66 25.8 4.1 48.4-14.9 57.6-48.3 3.5-12.7 4.4-34.5 2-46.6-4.1-20.2-11.2-33.8-23.2-45.1-12.1-11.2-26.1-15.1-40.3-11.3z"/></svg>