<svg width="395" height="433" viewBox="0 0 395 433" fill="none" xmlns="http://www.w3.org/2000/svg">
<path d="M244.717 75.2593C233.738 78.5886 223.881 88.3047 218.214 101.554C215.499 107.941 215.145 111.814 216.798 119.22C217.506 122.345 218.037 126.897 218.037 129.751C218.037 135.322 218.804 137.565 221.106 139.059C222.582 140.011 222.818 140.011 224.471 138.584C226.773 136.613 226.891 136.681 226.891 139.331C226.891 144.835 223.468 153.464 220.28 156.114C217.506 158.424 217.211 158.492 184.687 159.918C138.114 161.889 125.424 163.655 112.32 170.042C99.6877 176.157 91.2468 185.805 84.8719 201.229C81.6844 209.043 79.7365 216.652 77.8477 229.358C74.7192 249.606 72.7714 255.856 68.0492 261.36C62.0284 268.154 48.4522 273.318 41.1328 271.552C36.7058 270.533 36.1745 271.28 37.9454 275.493C43.1988 287.926 53.0563 299.205 61.7923 302.67C66.2784 304.437 74.9554 304.233 79.5595 302.331C81.5074 301.515 83.1011 300.904 83.1601 300.972C83.2192 301.108 84.2816 309.397 85.4622 319.521C86.7017 329.577 87.9413 339.021 88.2365 340.38C89.2399 344.864 89.9482 345 109.309 345C121.764 345 126.486 344.796 127.017 344.185C129.142 341.739 126.427 336.575 120.229 331.003L115.625 326.927L115.684 322.51C115.743 317.346 117.455 310.824 120.819 303.214C122.885 298.594 124.479 296.352 131.621 288.266C140.534 278.074 144.666 271.62 149.92 259.729L152.753 253.275H156.059C160.19 253.275 167.333 255.313 171.229 257.623C172.881 258.506 177.072 261.836 180.555 264.893C188.996 272.231 197.496 278.414 204.815 282.559L210.777 285.888L211.131 289.014C211.544 293.43 210.6 305.116 209.419 310.348C208.002 316.599 208.534 324.549 210.954 332.838C211.957 336.371 213.374 340.448 214.082 341.942L215.44 344.66L225.12 344.864C237.516 345.068 237.516 345.068 237.516 341.399C237.516 338.07 236.04 334.061 233.62 330.8C232.145 328.761 231.908 327.742 231.731 323.597C231.436 317.958 232.853 304.369 234.742 293.702L236.04 286.228L242.769 282.287C246.488 280.113 251.328 276.987 253.571 275.357C257.172 272.639 257.585 272.435 257.29 273.862C257.172 274.677 256.051 284.801 254.87 296.419C252.037 324.413 252.332 329.644 257.172 341.467L258.471 344.66L269.391 344.864C275.411 344.932 280.901 344.864 281.668 344.66C284.325 343.913 282.967 339.7 277.891 333.381L274.703 329.373V318.502C274.703 306.339 275.943 290.984 277.713 280.928C279.661 269.921 281.55 263.942 284.974 258.167C291.113 247.907 294.477 238.259 299.022 218.011C301.856 205.577 302.033 204.151 302.033 196.541C302.033 183.224 298.432 165.83 293.179 153.871C291.939 150.95 290.995 147.688 290.817 145.446C290.463 142.049 290.581 141.641 292.293 139.603C299.199 131.246 304.335 116.638 302.8 109.707C302.623 108.756 301.501 106.718 300.321 105.087C299.199 103.524 296.956 99.1079 295.363 95.303C289.991 82.3935 282.967 77.9091 263.547 74.9875C254.28 73.6286 250.089 73.6286 244.717 75.2593ZM264.668 78.9963C272.637 80.2872 277.064 81.6461 281.491 84.0242C287.099 87.0138 289.165 89.5277 292.411 97.3414C294.005 101.146 296.189 105.495 297.37 107.057C300.144 110.93 300.262 111.746 299.258 116.977C297.37 126.15 290.345 138.448 285.151 141.641C283.616 142.525 283.321 142.525 282.377 141.505C281.727 140.826 280.901 138.652 280.547 136.613C279.72 132.469 280.252 127.237 282.436 116.909C284.088 109.232 283.793 103.524 281.55 98.1567C279.72 93.8082 278.481 92.7211 277.3 94.5556C276.71 95.5748 276.828 96.3222 278.068 99.1079C280.311 104.272 280.429 108.28 278.54 117.725C276.415 128.732 276.002 135.187 277.3 139.671C278.658 144.291 281.255 146.873 283.97 146.397C286.272 145.922 286.39 146.533 285.033 151.561C283.026 159.239 279.366 164.878 272.283 171.197C270.335 172.896 270.335 173.032 271.339 174.187C272.342 175.41 272.401 175.41 274.408 174.187C279.72 170.858 285.151 163.52 287.63 156.249L288.693 153.124L290.581 157.337C295.304 168.072 298.432 183.427 298.432 195.861C298.491 203.403 298.255 204.898 295.776 215.905C291.231 235.881 287.63 246.48 282.022 255.856C280.665 258.167 278.953 261.836 278.245 264.01C273.818 277.531 270.748 302.263 271.28 320.676C271.575 331.411 271.811 332.294 275.352 335.963C280.134 340.923 280.134 340.991 269.627 340.787L260.419 340.584L258.648 335.488C257.231 331.479 256.759 329.033 256.523 323.869C256.228 317.075 256.523 313.813 259.474 286.432L261.245 269.581L267.266 262.651C275.352 253.207 280.842 243.626 284.206 232.959C285.505 228.747 285.505 228.611 284.443 227.727C282.908 226.436 282.318 227.252 280.075 233.91C275.352 247.975 265.436 261.496 252.509 271.484C247.728 275.153 237.516 281.404 237.516 280.656C237.516 278.89 241.471 266.456 243.773 261.088C246.252 255.245 247.846 252.799 251.269 249.402C252.922 247.839 252.863 245.801 251.269 245.801C248.259 245.801 242.947 253.003 239.641 261.632C233.679 277.191 228.485 304.641 228.426 321.016C228.367 328.557 228.485 329.441 229.724 331.343C235.922 340.991 235.981 340.923 225.652 340.923H217.388L216.266 338.002C215.676 336.439 214.436 332.294 213.551 328.829C211.839 321.695 211.78 315.308 213.492 306.611C214.259 302.874 214.495 296.759 214.613 278.074C214.791 254.701 214.791 254.09 213.079 242.064C211.662 231.532 211.426 228.543 211.662 220.525C212.016 210.537 211.603 208.907 209.478 210.741C208.534 211.489 208.357 212.915 208.121 220.729C207.884 228.475 208.121 231.668 209.537 242.064C211.013 252.459 211.249 256.264 211.249 267.339C211.249 274.473 211.072 280.588 210.836 280.792C210.305 281.472 199.503 274.949 193.305 270.261C190.235 267.951 185.1 263.738 181.912 260.952C175.065 255.041 169.163 251.644 163.201 250.217C159.01 249.198 147.146 248.79 144.017 249.538C143.191 249.741 141.833 250.013 141.125 250.217L139.708 250.557L140.534 247.024C141.833 241.18 141.42 229.698 139.649 220.321C138.232 213.051 137.937 212.168 136.698 211.964C134.75 211.624 134.573 213.051 135.989 219.71C138.823 233.367 138.646 241.112 135.34 252.731C130.736 269.038 123.121 281.064 111.493 290.508C108.896 292.615 105.768 295.536 104.528 296.963C99.5106 302.738 96.4412 311.028 96.4412 318.909C96.4412 326.315 98.3301 329.577 104.115 332.023C108.365 333.857 111.906 337.186 111.67 339.157C111.493 340.516 111.198 340.584 101.636 340.787C92.6635 340.923 91.7781 340.855 91.542 339.768C91.3649 339.089 90.2434 330.324 89.0038 320.268C86.2886 298.05 86.2886 297.846 91.9552 288.062L95.7329 281.472L94.6704 274.337C90.1843 244.578 91.0698 217.807 97.0315 203.131C100.337 194.978 104.41 190.63 110.962 188.184C113.559 187.232 114.504 186.553 114.622 185.534C114.858 183.563 113.441 183.224 109.899 184.379C102.875 186.757 97.7398 192.26 94.0211 201.365C87.6462 216.924 86.5837 242.947 91.0698 273.658L92.1322 280.792L88.8267 286.568C86.9969 289.761 85.108 293.294 84.6358 294.381C83.9865 295.808 82.6879 296.895 80.2088 298.118C77.1984 299.545 75.7227 299.817 70.4693 299.817C64.5666 299.817 64.0353 299.681 60.1986 297.507C55.1222 294.653 48.9834 288.062 45.0286 281.2L42.0182 276.036L46.9175 275.628C54.2959 274.949 63.7402 270.736 69.0526 265.776C74.9554 260.273 77.8477 252.187 80.799 232.959C83.2782 217.06 84.0455 213.595 86.7017 206.325C89.9482 197.492 93.3128 191.513 98.4481 185.602C112.497 169.431 126.309 166.034 187.343 163.587C206.645 162.84 214.968 162.364 217.919 161.753C219.041 161.549 221.106 160.326 222.523 159.103L225.061 156.861L225.711 159.715C229.075 174.798 235.568 187.98 243.301 195.386C248.613 200.414 250.974 201.908 251.978 200.957C253.453 199.53 252.981 198.511 249.794 196.065C240.526 188.931 232.971 175.274 229.37 159.239L227.836 152.309L228.957 147.824C229.961 143.884 230.256 143.408 231.141 143.951C231.731 144.291 232.617 145.514 233.089 146.601C233.561 147.688 234.447 148.708 235.096 148.979C235.745 149.183 236.69 150.882 237.457 153.328C238.165 155.57 239.405 158.763 240.231 160.462C243.006 166.169 249.676 172.488 251.919 171.537C253.571 170.79 252.922 169.227 249.912 166.713C246.547 163.927 243.419 159.307 241.707 154.551C240.585 151.493 240.585 151.357 241.648 152.037C242.238 152.445 247.196 152.716 252.863 152.716C262.366 152.716 263.075 152.648 265.731 151.086C269.214 148.979 272.342 145.582 272.342 143.816C272.342 141.438 270.689 141.573 268.151 144.155C266.852 145.514 264.905 147.145 263.783 147.756C261.953 148.776 261.599 148.776 259.238 147.756C257.821 147.077 254.398 144.631 251.564 142.185C246.783 138.108 246.37 137.633 246.37 135.39C246.37 133.352 246.665 132.876 248.731 131.653C253.217 129.004 256.818 123.228 255.519 120.85C254.87 119.559 249.144 118.065 244.894 118.065C235.804 118.065 232.971 121.054 231.495 132.061L230.846 137.429L229.961 135.051C229.193 132.944 229.252 132.333 230.197 129.615C230.964 127.237 231.318 123.704 231.554 113.308C231.908 101.418 232.026 99.7194 233.266 96.9337C234.801 93.2647 234.86 92.5173 233.62 91.9737C232.263 91.3622 231.023 92.7211 229.606 96.3222C228.603 98.972 228.367 101.282 228.072 112.629C227.777 123.092 227.54 126.422 226.714 128.528C225.356 132.129 222.818 135.866 222.11 135.39C221.815 135.119 221.579 132.809 221.579 130.159C221.579 127.509 220.988 122.617 220.339 119.22C219.572 115.483 219.159 111.882 219.336 109.843C219.749 104.951 223.881 97.0696 229.547 90.4789C239.464 78.8604 247.61 76.2105 264.668 78.9963ZM247.255 122.073C248.082 122.481 247.551 122.685 245.308 123.024C241.294 123.568 240.999 123.84 241.648 126.082L242.238 127.917L240.762 125.878C239.936 124.723 239.405 123.568 239.464 123.16C239.877 121.801 244.953 121.054 247.255 122.073ZM240.644 131.314C242.179 132.809 242.769 134.099 243.065 136.206C243.419 138.992 243.36 139.059 240.113 142.185C237.634 144.427 236.572 145.107 236.099 144.563C235.155 143.476 234.919 131.789 235.745 128.256L236.454 125.335L237.516 127.305C238.165 128.392 239.582 130.159 240.644 131.314ZM249.558 145.582L253.04 148.64H248.023C241.707 148.64 240.526 147.688 243.124 144.563C244.068 143.408 245.131 142.525 245.426 142.525C245.78 142.525 247.669 143.951 249.558 145.582ZM148.385 253.614C148.385 253.818 147.323 256.332 146.083 259.254C141.538 269.649 136.934 276.716 128.434 286.432C120.701 295.264 120.111 296.148 117.219 302.874C112.91 312.998 110.844 323.733 112.32 328.286C112.674 329.169 114.444 331.275 116.333 332.838C120.347 336.235 123.594 339.632 123.594 340.38C123.594 340.652 121.764 340.923 119.462 340.923H115.33V338.817C115.33 334.808 111.08 330.46 104.528 327.674C101.104 326.179 99.9828 324.073 99.9828 318.977C99.9828 308.989 104.351 301.04 113.972 293.498C124.184 285.548 132.979 272.435 137.465 258.506C138.587 255.109 138.705 255.041 143.958 254.022C147.854 253.275 148.385 253.207 148.385 253.614Z" fill="#E8C200" stroke="#E8C200" stroke-width="0.133333"/>
<path d="M236.294 103.087C234.287 104.65 234.7 108.727 236.943 110.153C238.36 111.037 238.714 111.037 240.19 110.153C242.374 108.727 242.787 104.65 240.78 103.087C240.072 102.476 239.068 102 238.537 102C238.006 102 237.002 102.476 236.294 103.087Z" fill="#E8C200" stroke="#E8C200" stroke-width="0.133333"/>
<path d="M261.24 103.767C260.531 104.786 260 105.941 260 106.416C260 108.047 262.42 110.833 263.896 110.833C265.726 110.833 267.674 108.591 267.674 106.416C267.674 104.242 265.726 102 263.896 102C263.01 102 261.948 102.747 261.24 103.767Z" fill="#E8C200" stroke="#E8C200" stroke-width="0.133333"/>
<ellipse cx="197.5" cy="216.5" rx="197.5" ry="195.5" fill="#D9D9D9" fill-opacity="0.04"/>
</svg>
