<svg width="395" height="433" fill="none" xmlns="http://www.w3.org/2000/svg"><path d="M244.717 75.26c-10.979 3.329-20.836 13.045-26.503 26.294-2.715 6.387-3.069 10.26-1.416 17.666.708 3.125 1.239 7.677 1.239 10.531 0 5.571.767 7.814 3.069 9.308 1.476.952 1.712.952 3.365-.475 2.302-1.971 2.42-1.903 2.42.747 0 5.504-3.423 14.133-6.611 16.783-2.774 2.31-3.069 2.378-35.593 3.804-46.573 1.971-59.263 3.737-72.367 10.124-12.632 6.115-21.073 15.763-27.448 31.187-3.188 7.814-5.135 15.423-7.024 28.129-3.129 20.248-5.077 26.498-9.799 32.002-6.02 6.794-19.597 11.958-26.916 10.192-4.427-1.019-4.959-.272-3.188 3.941 5.254 12.433 15.111 23.712 23.847 27.177 4.486 1.767 13.163 1.563 17.767-.339 1.948-.816 3.542-1.427 3.601-1.359.06.136 1.122 8.425 2.302 18.549 1.24 10.056 2.48 19.5 2.775 20.859 1.003 4.484 1.711 4.62 21.072 4.62 12.455 0 17.177-.204 17.708-.815 2.125-2.446-.59-7.61-6.788-13.182l-4.604-4.076.059-4.417c.059-5.164 1.771-11.686 5.135-19.296 2.066-4.62 3.66-6.862 10.802-14.948 8.913-10.192 13.045-16.646 18.299-28.537l2.833-6.454h3.306c4.131 0 11.274 2.038 15.17 4.348 1.652.883 5.843 4.213 9.326 7.27 8.441 7.338 16.941 13.521 24.26 17.666l5.962 3.329.354 3.126c.413 4.416-.531 16.102-1.712 21.334-1.417 6.251-.885 14.201 1.535 22.49 1.003 3.533 2.42 7.61 3.128 9.104l1.358 2.718 9.68.204c12.396.204 12.396.204 12.396-3.465 0-3.329-1.476-7.338-3.896-10.599-1.475-2.039-1.712-3.058-1.889-7.203-.295-5.639 1.122-19.228 3.011-29.895l1.298-7.474 6.729-3.941c3.719-2.174 8.559-5.3 10.802-6.93 3.601-2.718 4.014-2.922 3.719-1.495-.118.815-1.239 10.939-2.42 22.557-2.833 27.994-2.538 33.225 2.302 45.048l1.299 3.193 10.92.204c6.02.068 11.51 0 12.277-.204 2.657-.747 1.299-4.96-3.777-11.279l-3.188-4.008v-10.871c0-12.163 1.24-27.518 3.01-37.574 1.948-11.007 3.837-16.986 7.261-22.761 6.139-10.26 9.503-19.908 14.048-40.156 2.834-12.434 3.011-13.86 3.011-21.47 0-13.317-3.601-30.711-8.854-42.67-1.24-2.921-2.184-6.183-2.362-8.425-.354-3.397-.236-3.805 1.476-5.843 6.906-8.357 12.042-22.965 10.507-29.896-.177-.951-1.299-2.989-2.479-4.62-1.122-1.563-3.365-5.98-4.958-9.784-5.372-12.91-12.396-17.394-31.816-20.316-9.267-1.358-13.458-1.358-18.83.272zm19.951 3.736c7.969 1.291 12.396 2.65 16.823 5.028 5.608 2.99 7.674 5.504 10.92 13.317 1.594 3.805 3.778 8.154 4.959 9.716 2.774 3.873 2.892 4.689 1.888 9.92-1.888 9.173-8.913 21.471-14.107 24.664-1.535.884-1.83.884-2.774-.136-.65-.679-1.476-2.853-1.83-4.892-.827-4.144-.295-9.376 1.889-19.704 1.652-7.677 1.357-13.385-.886-18.752-1.83-4.349-3.069-5.436-4.25-3.601-.59 1.019-.472 1.766.768 4.552 2.243 5.164 2.361 9.172.472 18.617-2.125 11.007-2.538 17.462-1.24 21.946 1.358 4.62 3.955 7.202 6.67 6.726 2.302-.475 2.42.136 1.063 5.164-2.007 7.678-5.667 13.317-12.75 19.636-1.948 1.699-1.948 1.835-.944 2.99 1.003 1.223 1.062 1.223 3.069 0 5.312-3.329 10.743-10.667 13.222-17.938l1.063-3.125 1.888 4.213c4.723 10.735 7.851 26.09 7.851 38.524.059 7.542-.177 9.037-2.656 20.044-4.545 19.976-8.146 30.575-13.754 39.951-1.357 2.311-3.069 5.98-3.777 8.154-4.427 13.521-7.497 38.253-6.965 56.666.295 10.735.531 11.618 4.072 15.287 4.782 4.96 4.782 5.028-5.725 4.824l-9.208-.203-1.771-5.096c-1.417-4.009-1.889-6.455-2.125-11.619-.295-6.794 0-10.056 2.951-37.437l1.771-16.851 6.021-6.93c8.086-9.444 13.576-19.025 16.94-29.692 1.299-4.212 1.299-4.348.237-5.232-1.535-1.291-2.125-.475-4.368 6.183-4.723 14.065-14.639 27.586-27.566 37.574-4.781 3.669-14.993 9.92-14.993 9.172 0-1.766 3.955-14.2 6.257-19.568 2.479-5.843 4.073-8.289 7.496-11.686 1.653-1.563 1.594-3.601 0-3.601-3.01 0-8.322 7.202-11.628 15.831-5.962 15.559-11.156 43.009-11.215 59.384-.059 7.541.059 8.425 1.298 10.327 6.198 9.648 6.257 9.58-4.072 9.58h-8.264l-1.122-2.921c-.59-1.563-1.83-5.708-2.715-9.173-1.712-7.134-1.771-13.521-.059-22.218.767-3.737 1.003-9.852 1.121-28.537.178-23.373.178-23.984-1.534-36.01-1.417-10.532-1.653-13.521-1.417-21.539.354-9.988-.059-11.618-2.184-9.784-.944.748-1.121 2.174-1.357 9.988-.237 7.746 0 10.939 1.416 21.335 1.476 10.395 1.712 14.2 1.712 25.275 0 7.134-.177 13.249-.413 13.453-.531.68-11.333-5.843-17.531-10.531-3.07-2.31-8.205-6.523-11.393-9.309-6.847-5.911-12.749-9.308-18.711-10.735-4.191-1.019-16.055-1.427-19.184-.679-.826.203-2.184.475-2.892.679l-1.417.34.826-3.533c1.299-5.844.886-17.326-.885-26.703-1.417-7.27-1.712-8.153-2.951-8.357-1.948-.34-2.125 1.087-.709 7.746 2.834 13.657 2.657 21.402-.649 33.021-4.604 16.307-12.219 28.333-23.847 37.777-2.597 2.107-5.725 5.028-6.965 6.455-5.017 5.775-8.087 14.065-8.087 21.946 0 7.406 1.89 10.668 7.674 13.114 4.25 1.834 7.791 5.163 7.555 7.134-.177 1.359-.472 1.427-10.034 1.63-8.972.136-9.858.068-10.094-1.019-.177-.679-1.299-9.444-2.538-19.5-2.715-22.218-2.715-22.422 2.951-32.206l3.778-6.59-1.063-7.135c-4.486-29.759-3.6-56.53 2.361-71.206 3.306-8.153 7.379-12.501 13.931-14.947 2.597-.952 3.542-1.631 3.66-2.65.236-1.971-1.181-2.31-4.723-1.155-7.024 2.378-12.16 7.881-15.878 16.986-6.375 15.559-7.437 41.582-2.951 72.293l1.062 7.134-3.305 5.776c-1.83 3.193-3.719 6.726-4.191 7.813-.65 1.427-1.948 2.514-4.427 3.737-3.01 1.427-4.486 1.699-9.74 1.699-5.902 0-6.434-.136-10.27-2.31-5.077-2.854-11.216-9.445-15.17-16.307l-3.01-5.164 4.898-.408c7.379-.679 16.823-4.892 22.136-9.852 5.902-5.503 8.795-13.589 11.746-32.817 2.48-15.899 3.246-19.364 5.903-26.634 3.246-8.833 6.61-14.812 11.746-20.723 14.049-16.171 27.861-19.568 88.895-22.015 19.302-.747 27.625-1.223 30.576-1.834 1.122-.204 3.187-1.427 4.604-2.65l2.538-2.242.65 2.854c3.364 15.083 9.857 28.265 17.59 35.671 5.312 5.028 7.673 6.522 8.677 5.571 1.475-1.427 1.003-2.446-2.184-4.892-9.268-7.134-16.823-20.791-20.424-36.826l-1.534-6.93 1.121-4.485c1.004-3.94 1.299-4.416 2.184-3.873.59.34 1.476 1.563 1.948 2.65s1.358 2.107 2.007 2.378c.649.204 1.594 1.903 2.361 4.349.708 2.242 1.948 5.435 2.774 7.134 2.775 5.707 9.445 12.026 11.688 11.075 1.652-.747 1.003-2.31-2.007-4.824-3.365-2.786-6.493-7.406-8.205-12.162-1.122-3.058-1.122-3.194-.059-2.514.59.408 5.548.679 11.215.679 9.503 0 10.212-.068 12.868-1.63 3.483-2.107 6.611-5.504 6.611-7.27 0-2.378-1.653-2.243-4.191.339-1.299 1.359-3.246 2.99-4.368 3.601-1.83 1.02-2.184 1.02-4.545 0-1.417-.679-4.84-3.125-7.674-5.571-4.781-4.077-5.194-4.552-5.194-6.795 0-2.038.295-2.514 2.361-3.737 4.486-2.649 8.087-8.425 6.788-10.803-.649-1.291-6.375-2.785-10.625-2.785-9.09 0-11.923 2.989-13.399 13.996l-.649 5.368-.885-2.378c-.768-2.107-.709-2.718.236-5.436.767-2.378 1.121-5.911 1.357-16.307.354-11.89.472-13.589 1.712-16.374 1.535-3.67 1.594-4.417.354-4.96-1.357-.612-2.597.747-4.014 4.348-1.003 2.65-1.239 4.96-1.534 16.307-.295 10.463-.532 13.793-1.358 15.899-1.358 3.601-3.896 7.338-4.604 6.862-.295-.271-.531-2.581-.531-5.231s-.591-7.542-1.24-10.939c-.767-3.737-1.18-7.338-1.003-9.377.413-4.892 4.545-12.773 10.211-19.364 9.917-11.619 18.063-14.269 35.121-11.483zm-17.413 43.077c.827.408.296.612-1.947.951-4.014.544-4.309.816-3.66 3.058l.59 1.835-1.476-2.039c-.826-1.155-1.357-2.31-1.298-2.718.413-1.359 5.489-2.106 7.791-1.087zm-6.611 9.241c1.535 1.495 2.125 2.785 2.421 4.892.354 2.786.295 2.853-2.952 5.979-2.479 2.242-3.541 2.922-4.014 2.378-.944-1.087-1.18-12.774-.354-16.307l.709-2.921 1.062 1.97c.649 1.087 2.066 2.854 3.128 4.009zm8.914 14.268l3.482 3.058h-5.017c-6.316 0-7.497-.952-4.899-4.077.944-1.155 2.007-2.038 2.302-2.038.354 0 2.243 1.426 4.132 3.057zM148.385 253.614c0 .204-1.062 2.718-2.302 5.64-4.545 10.395-9.149 17.462-17.649 27.178-7.733 8.832-8.323 9.716-11.215 16.442-4.309 10.124-6.375 20.859-4.899 25.412.354.883 2.124 2.989 4.013 4.552 4.014 3.397 7.261 6.794 7.261 7.542 0 .272-1.83.543-4.132.543h-4.132v-2.106c0-4.009-4.25-8.357-10.802-11.143-3.424-1.495-4.545-3.601-4.545-8.697 0-9.988 4.368-17.937 13.989-25.479 10.212-7.95 19.007-21.063 23.493-34.992 1.122-3.397 1.24-3.465 6.493-4.484 3.896-.747 4.427-.815 4.427-.408z" fill="#E8C200" stroke="#E8C200" stroke-width=".133"/><path d="M236.294 103.087c-2.007 1.563-1.594 5.64.649 7.066 1.417.884 1.771.884 3.247 0 2.184-1.426 2.597-5.503.59-7.066-.708-.611-1.712-1.087-2.243-1.087-.531 0-1.535.476-2.243 1.087zm24.946.68c-.709 1.019-1.24 2.174-1.24 2.649 0 1.631 2.42 4.417 3.896 4.417 1.83 0 3.778-2.242 3.778-4.417 0-2.174-1.948-4.416-3.778-4.416-.886 0-1.948.747-2.656 1.767z" fill="#E8C200" stroke="#E8C200" stroke-width=".133"/><ellipse cx="197.5" cy="216.5" rx="197.5" ry="195.5" fill="#D9D9D9" fill-opacity=".04"/></svg>