<?xml version="1.0" encoding="utf-8"?><svg xmlns="http://www.w3.org/2000/svg" xmlns:xlink="http://www.w3.org/1999/xlink"><symbol viewBox="0 0 20 13" id="accordion-arrow" xmlns="http://www.w3.org/2000/svg"><path d="M9.601 12.8.167 1.19a.811.811 0 0 1 0-.985c.222-.273.578-.273.8 0L10 11.319 19.032.205c.222-.273.578-.273.8 0a.79.79 0 0 1 .168.49.765.765 0 0 1-.168.49l-9.434 11.61a.492.492 0 0 1-.797.005z"/></symbol><symbol viewBox="0 0 60 48" id="arrow-left" xmlns="http://www.w3.org/2000/svg"><path d="M0 0h60v48H0z"/><path d="M34.218 16 26 24l8.218 8"/></symbol><symbol viewBox="0 0 60 48" id="arrow-right" xmlns="http://www.w3.org/2000/svg"><path d="M0 0h60v48H0z"/><path d="M25.782 32 34 24l-8.218-8"/></symbol><symbol viewBox="0 0 40 40" id="facebook" xmlns="http://www.w3.org/2000/svg"><path d="M40 20C40 8.956 31.044 0 20 0S0 8.956 0 20s8.956 20 20 20c.117 0 .234-.002.352-.005V24.426h-4.297V19.42h4.297v-3.685c0-4.274 2.608-6.6 6.42-6.6 1.826 0 3.396.136 3.853.197v4.466h-2.629c-2.074 0-2.475.986-2.475 2.432v3.19h4.959l-.647 5.007h-4.312v14.801C33.88 36.831 40 29.13 40 20Z"/></symbol><symbol viewBox="0 0 40 40" id="instagram" xmlns="http://www.w3.org/2000/svg"><g clip-path="url(#ea)"><path d="M23.828 20a3.828 3.828 0 1 1-7.656 0 3.828 3.828 0 0 1 7.656 0Z"/><path d="M28.953 13.227a3.559 3.559 0 0 0-.86-1.32 3.556 3.556 0 0 0-1.32-.86c-.405-.157-1.012-.344-2.132-.395-1.211-.055-1.575-.067-4.641-.067-3.067 0-3.43.012-4.64.067-1.12.051-1.729.238-2.133.395-.499.184-.95.478-1.32.86a3.56 3.56 0 0 0-.86 1.32c-.157.405-.344 1.013-.395 2.132-.055 1.211-.067 1.574-.067 4.641s.012 3.43.067 4.641c.05 1.12.238 1.728.395 2.132.184.5.478.95.86 1.32.37.382.82.676 1.32.86.404.157 1.012.344 2.132.395 1.211.056 1.574.067 4.64.067 3.068 0 3.43-.011 4.642-.067 1.12-.05 1.727-.238 2.132-.395a3.803 3.803 0 0 0 2.18-2.18c.157-.404.344-1.012.395-2.132.055-1.211.067-1.574.067-4.64 0-3.068-.012-3.43-.067-4.642-.05-1.12-.238-1.727-.395-2.132ZM20 25.897a5.897 5.897 0 1 1 0-11.794 5.897 5.897 0 0 1 0 11.794Zm6.13-10.65a1.378 1.378 0 1 1 0-2.756 1.378 1.378 0 0 1 0 2.757Z"/><path d="M20 0C8.956 0 0 8.956 0 20s8.956 20 20 20 20-8.956 20-20S31.044 0 20 0Zm11.415 24.735c-.055 1.222-.25 2.057-.534 2.788a5.872 5.872 0 0 1-3.358 3.358c-.73.284-1.566.478-2.788.534-1.225.056-1.616.07-4.735.07s-3.51-.014-4.735-.07c-1.222-.056-2.057-.25-2.787-.534a5.626 5.626 0 0 1-2.035-1.324 5.628 5.628 0 0 1-1.324-2.034c-.284-.73-.478-1.566-.534-2.788-.056-1.225-.07-1.616-.07-4.735s.014-3.51.07-4.735c.055-1.222.25-2.057.533-2.788.289-.766.741-1.46 1.325-2.034a5.625 5.625 0 0 1 2.034-1.324c.731-.284 1.566-.478 2.788-.534 1.225-.056 1.616-.07 4.735-.07s3.51.014 4.735.07c1.222.056 2.057.25 2.788.533a5.63 5.63 0 0 1 2.034 1.325 5.626 5.626 0 0 1 1.324 2.034c.285.731.479 1.566.534 2.788.056 1.225.07 1.616.07 4.735s-.014 3.51-.07 4.735Z"/></g><defs><clipPath id="ea"><path d="M0 0h40v40H0z"/></clipPath></defs></symbol></svg>